<?xml version="1.0" encoding="utf-8"?>
<!-- Generator: Adobe Illustrator 16.0.0, SVG Export Plug-In . SVG Version: 6.00 Build 0)  -->
<!DOCTYPE svg PUBLIC "-//W3C//DTD SVG 1.1//EN" "http://www.w3.org/Graphics/SVG/1.1/DTD/svg11.dtd">
<svg version="1.1" id="Layer_1" xmlns="http://www.w3.org/2000/svg" xmlns:xlink="http://www.w3.org/1999/xlink" x="0px" y="0px"
	 width="48px" height="48px" viewBox="0 0 48 48" enable-background="new 0 0 48 48" xml:space="preserve">
<g>
	<path fill="#2196F3" d="M1.857,21.329c0.343-0.199,0.709-0.403,0.967-0.525c0.626-0.312,1.397-0.679,2.314-1.021
		c0.914-0.349,1.963-0.723,3.15-1.014c1.18-0.314,2.503-0.529,3.937-0.668c1.441-0.094,3.006-0.079,4.66,0.218
		c0.415,0.102,0.833,0.204,1.254,0.308l0.315,0.085l0.369,0.14l0.524,0.196l0.528,0.199l0.607,0.286
		c0.39,0.191,0.844,0.408,1.178,0.602c1.445,0.782,2.728,1.621,4.02,2.393c1.266,0.759,2.516,1.499,3.76,2.067
		c0.616,0.327,1.252,0.523,1.866,0.799c0.62,0.242,1.255,0.389,1.869,0.614c0.627,0.147,1.253,0.259,1.867,0.416
		c0.629,0.078,1.245,0.156,1.845,0.23c1.215,0.045,2.399,0.149,3.502,0.041c0.56-0.027,1.095-0.054,1.604-0.078
		c0.515-0.063,1.002-0.122,1.459-0.179c0.463-0.053,0.894-0.117,1.305-0.15c0.402-0.072,0.771-0.14,1.104-0.2
		c0.411-0.073,0.772-0.133,1.076-0.181c0.594-0.092,0.688,0.144,0.188,0.487c-0.253,0.174-0.559,0.378-0.913,0.609
		c-0.296,0.191-0.625,0.402-0.982,0.633c-0.371,0.207-0.788,0.39-1.23,0.608c-0.448,0.214-0.925,0.441-1.427,0.682
		c-0.515,0.216-1.082,0.376-1.668,0.578c-1.164,0.432-2.513,0.644-3.951,0.861c-0.726,0.051-1.479,0.082-2.253,0.114
		c-0.772-0.04-1.565-0.106-2.373-0.185c-1.593-0.265-3.243-0.658-4.786-1.312c-1.583-0.596-3.017-1.436-4.421-2.246
		c-1.291-0.829-2.582-1.657-3.853-2.473c-0.315-0.21-0.549-0.319-0.821-0.493l-0.391-0.246l-0.505-0.247l-0.504-0.245l-0.125-0.061
		l-0.063-0.031c-0.004-0.006-0.165-0.07,0.045,0.012l-0.214-0.076c-0.286-0.111-0.569-0.222-0.85-0.331
		c-2.368-0.74-4.964-0.931-7.205-0.958c-2.252-0.049-4.187,0.079-5.553,0.153c-0.417,0.029-0.781,0.053-1.085,0.074
		C1.397,21.86,1.331,21.633,1.857,21.329z"/>
	<path fill="#2196F3" d="M12.525,14.164c0.191-0.124,0.423-0.266,0.695-0.419c0.895-0.51,2.217-1.167,3.948-1.646
		c1.724-0.477,3.873-0.835,6.382-0.39c0.314,0.075,0.634,0.148,0.954,0.238l0.239,0.067l0.294,0.115l0.376,0.142l0.381,0.145
		l0.463,0.22c0.293,0.146,0.647,0.325,0.886,0.467c1.063,0.586,1.969,1.204,2.877,1.768c0.878,0.556,1.739,1.091,2.575,1.513
		c0.421,0.24,0.846,0.388,1.258,0.6c0.418,0.185,0.845,0.301,1.257,0.481c0.424,0.125,0.849,0.22,1.264,0.359
		c0.425,0.081,0.847,0.147,1.263,0.24c0.84,0.087,1.666,0.224,2.45,0.207c0.397,0.012,0.779,0.024,1.143,0.036
		c0.369-0.015,0.721-0.029,1.051-0.042c0.34-0.005,0.657-0.01,0.951-0.015c0.295-0.024,0.566-0.046,0.812-0.066
		c0.305-0.024,0.573-0.041,0.799-0.052c0.442-0.022,0.529,0.213,0.178,0.488c-0.178,0.139-0.394,0.303-0.646,0.486
		c-0.211,0.151-0.445,0.319-0.7,0.501c-0.265,0.166-0.563,0.316-0.881,0.492c-0.324,0.167-0.67,0.345-1.034,0.533
		c-0.375,0.168-0.787,0.298-1.217,0.458c-0.854,0.336-1.848,0.514-2.917,0.685c-0.539,0.046-1.101,0.069-1.679,0.096
		c-0.577-0.024-1.169-0.078-1.773-0.136c-1.189-0.199-2.425-0.501-3.566-1.003c-1.175-0.456-2.219-1.094-3.235-1.706
		c-0.969-0.637-1.898-1.285-2.707-1.844l-0.533-0.349l-0.248-0.177l-0.355-0.191l-0.355-0.19l-0.088-0.047
		c-0.033-0.023-0.191-0.089,0.018-0.002l-0.139-0.057c-0.185-0.075-0.365-0.167-0.548-0.252c-1.556-0.587-3.371-0.85-4.96-0.989
		c-1.597-0.149-3.001-0.19-3.999-0.238c-0.307-0.011-0.574-0.021-0.797-0.03C12.219,14.645,12.149,14.407,12.525,14.164z"/>
	<path fill="#2196F3" d="M1.648,27.695c0.197-0.113,0.435-0.245,0.713-0.386c0.917-0.467,2.27-1.062,4.021-1.458
		c1.745-0.396,3.908-0.653,6.394-0.091c0.31,0.091,0.626,0.179,0.941,0.282l0.236,0.079l0.289,0.129l0.369,0.16l0.374,0.162
		l0.451,0.242c0.286,0.159,0.632,0.354,0.864,0.507c1.033,0.636,1.909,1.295,2.79,1.9c0.852,0.598,1.686,1.172,2.503,1.633
		c0.407,0.26,0.826,0.427,1.228,0.658c0.409,0.203,0.83,0.34,1.233,0.539c0.417,0.145,0.836,0.259,1.245,0.417
		c0.421,0.101,0.839,0.187,1.251,0.3c0.835,0.126,1.652,0.301,2.437,0.32c0.397,0.03,0.777,0.061,1.14,0.089
		c0.37,0.004,0.722,0.006,1.052,0.008c0.34,0.011,0.658,0.021,0.951,0.029c0.296-0.011,0.569-0.02,0.814-0.028
		c0.306-0.01,0.574-0.013,0.8-0.014c0.442-0.001,0.52,0.237,0.155,0.497c-0.185,0.13-0.408,0.284-0.668,0.455
		c-0.219,0.141-0.459,0.297-0.723,0.467c-0.271,0.153-0.577,0.289-0.903,0.451c-0.332,0.152-0.685,0.313-1.058,0.484
		c-0.382,0.149-0.801,0.26-1.237,0.401c-0.867,0.296-1.871,0.426-2.945,0.547c-0.542,0.021-1.103,0.017-1.682,0.018
		c-0.574-0.051-1.164-0.133-1.765-0.219c-1.18-0.255-2.4-0.614-3.515-1.169c-1.154-0.511-2.167-1.197-3.152-1.856
		c-0.938-0.681-1.836-1.371-2.618-1.968l-0.517-0.374l-0.238-0.188l-0.346-0.208l-0.346-0.206l-0.086-0.051
		c-0.032-0.025-0.186-0.099,0.018-0.003l-0.136-0.063c-0.182-0.084-0.356-0.184-0.536-0.276c-1.526-0.661-3.327-1.008-4.908-1.223
		c-1.589-0.224-2.989-0.331-3.983-0.425c-0.306-0.026-0.573-0.048-0.795-0.067C1.321,28.161,1.261,27.92,1.648,27.695z"/>
</g>
</svg>
